# xmcd
#
# Track frame offsets:
#	150
#	18362
#	35502
#	60822
#	75995
#	104207
#	119732
#	134420
#	154495
#	169157
#	189225
#	201630
#	222990
#	240730
#
# Disc length: 3467 seconds
#
# Revision: 0
# Processed by: cddbd v1.5.1PL2 Copyright (c) Steve Scherf et al.
# Submitted via: audiograbber 1.83.01
#
DISCID=ca0d890e
DTITLE=Various Artist - The blues the whole blues and nothing but the blues CD 2
DYEAR=1900
DGENRE=Blues
TTITLE0=Nelson, Tracy - Livin' on love
TTITLE1=Peebles, Ann - Fear no evil
TTITLE2=Block, Rory - Talkin' bout my man
TTITLE3=Forrest, Susan and the Duke Robillard Band - Turn it around
TTITLE4=Ball, Marcia - I still love you
TTITLE5=Lady Binca - Lookin' at my man
TTITLE6=Honeycutt, Miki - Here comes the night
TTITLE7=Lynn, Barbara - Sweet sixteen
TTITLE8=Strehli, Angela - Can't stop these teardrops
TTITLE9=Thomas, Irma - Woman left lonely
TTITLE10=Kane, Candye - Didn't we
TTITLE11=Wellington, Valerie - Bad avenue
TTITLE12=Willson, Michelle - People say
TTITLE13=Ball, Marcia, Irma Thomas and Tracy Nelson - Sing it
EXTD=
EXTT0=
EXTT1=
EXTT2=
EXTT3=
EXTT4=
EXTT5=
EXTT6=
EXTT7=
EXTT8=
EXTT9=
EXTT10=
EXTT11=
EXTT12=
EXTT13=
PLAYORDER=
